<svg width="196" height="196" viewBox="0 0 196 196" fill="none" xmlns="http://www.w3.org/2000/svg">
<g clip-path="url(#clip0_6_2)">
<path d="M88.1152 138.911C94.3324 144.386 103.811 143.784 109.286 137.567C114.761 131.35 114.159 121.872 107.942 116.397L88.1152 138.911ZM65.6009 119.084L88.1152 138.911L107.942 116.397L85.4278 96.5697L65.6009 119.084Z" fill="#BB1A34"/>
<path d="M62.9134 76.7428C56.6963 71.2678 47.2179 71.8694 41.7428 78.0866C36.2678 84.3037 36.8694 93.7821 43.0866 99.2572L62.9134 76.7428ZM85.4278 96.5697L62.9134 76.7428L43.0866 99.2572L65.6009 119.084L85.4278 96.5697Z" fill="#FDCB58"/>
<path d="M14.2499 24.0185L23.856 20.9703L29.2648 38.0155L36.5077 28.2174C37.1887 27.2636 37.6979 26.389 38.0356 25.5933C38.3733 24.7977 38.7283 24.3408 39.1006 24.2226C39.7708 24.0099 40.1933 24.1791 40.3682 24.7302C40.5005 25.1472 40.3796 25.6445 40.0056 26.2222L35.7055 32.4308L49.5693 47.6045L39.5835 50.7733L29.8887 39.9814L33.8869 52.581L24.2808 55.6292L14.2499 24.0185Z" fill="black"/>
<path d="M66.9418 49.042C61.5243 48.1883 59.2327 45.1144 60.067 39.8203L62.7815 22.5954L72.6904 24.157L69.1185 46.8226C69.2607 46.9241 69.4475 46.9931 69.6791 47.0296L70.4431 47.15C71.6778 47.3445 73.2755 46.7422 75.236 45.3428C75.8256 44.9137 76.3916 44.4335 76.9341 43.9021L79.8675 25.288L89.8227 26.8569L85.9261 51.583L75.9708 50.0141L76.5327 46.4488C73.5961 48.7225 70.3991 49.5869 66.9418 49.042Z" fill="black"/>
<path d="M96.8862 53.3899C97.0128 53.1927 97.1925 53.0574 97.4253 52.9839C97.6796 52.9058 97.9186 52.9385 98.1421 53.0819C98.3657 53.2254 98.5076 53.4092 98.5679 53.6336C98.5679 53.6336 98.6352 53.8903 98.7699 54.4037C99.3697 56.478 100.899 58.3041 103.358 59.8821C105.015 60.9453 106.3 61.2869 107.212 60.9069C107.462 60.8071 107.646 60.6652 107.764 60.4811C107.89 60.2838 107.969 60.0744 108 59.8528C108.052 59.6265 108.04 59.3125 107.964 58.9108C107.896 58.4959 107.759 57.9717 107.553 57.3381L106.715 54.8237C105.283 50.7486 104.482 47.6723 104.311 45.5948C104.156 43.6948 104.505 42.0807 105.357 40.7525C106.429 39.0824 108.097 38.1755 110.361 38.0319C112.712 37.8693 115.15 38.5982 117.675 40.2183C119.45 41.3575 120.72 42.46 121.484 43.5259C122.248 44.5917 122.731 45.4306 122.932 46.0426C123.142 46.6414 123.158 47.0788 122.981 47.355C122.618 47.9205 122.213 48.0597 121.766 47.7728C121.556 47.6378 121.405 47.4389 121.314 47.1761C121.244 46.9086 121.06 46.4286 120.762 45.736C120.472 45.0302 119.961 44.2937 119.228 43.5264C118.495 42.759 117.754 42.1349 117.004 41.6539C116.255 41.1729 115.646 40.9495 115.179 40.9837C114.724 41.0263 114.421 41.166 114.269 41.4027C114.126 41.6262 114.033 41.8728 113.99 42.1422C113.955 42.3986 113.974 42.745 114.047 43.1815C114.187 44.2366 114.595 45.6402 115.271 47.3924C115.948 49.1446 116.478 50.6914 116.861 52.0326C117.244 53.3738 117.474 54.5336 117.552 55.5117C117.7 57.2775 117.386 58.7653 116.61 59.9752C115.833 61.185 114.943 62.0805 113.939 62.6615C112.944 63.2294 111.833 63.5565 110.608 63.643C108.007 63.8489 105.246 63.0152 102.327 61.1419C99.9863 59.6399 98.3203 57.9397 97.3292 56.0413C96.6795 54.826 96.5318 53.9423 96.8862 53.3899Z" fill="black"/>
<path d="M123.915 80.6792C120.9 76.0975 121.632 72.3338 126.109 69.3881L140.676 59.8038L146.19 68.184L127.021 80.7956C127.042 80.969 127.117 81.1537 127.246 81.3495L127.671 81.9956C128.358 83.0399 129.878 83.8161 132.233 84.3245C132.947 84.4718 133.683 84.5673 134.441 84.6109L150.183 74.2537L155.723 82.673L134.812 96.4311L129.272 88.0118L132.288 86.028C128.629 85.386 125.839 83.6031 123.915 80.6792Z" fill="black"/>
<path d="M162.646 103.513L164.438 113.431L157.196 114.739C160.017 115.325 162.152 116.114 163.601 117.107C165.069 118.112 165.914 119.229 166.136 120.459C166.261 121.151 166.175 121.731 165.879 122.197C165.6 122.676 165.238 122.956 164.792 123.036C164.346 123.117 163.981 123.119 163.698 123.044C163.414 122.968 163.162 122.847 162.941 122.68C162.482 122.334 162.219 121.977 162.152 121.608C162.047 121.024 162.03 120.582 162.103 120.283C162.232 119.768 162.264 119.325 162.197 118.956C162.13 118.587 161.746 118.172 161.043 117.712C160.356 117.249 159.443 116.85 158.303 116.516C155.52 115.701 152.637 115.563 149.654 116.102L139.805 117.881L138.013 107.964L162.646 103.513Z" fill="black"/>
<path d="M169.067 141.204C169.237 139.603 169.727 138.391 170.537 137.565C171.348 136.74 172.335 136.389 173.501 136.512C174.48 136.616 175.266 137.202 175.86 138.271C176.494 139.406 176.748 140.564 176.623 141.745C176.498 142.926 176.285 143.823 175.984 144.435C175.682 145.063 175.321 145.583 174.9 145.994C174.043 146.814 173.11 147.171 172.1 147.064C171.09 146.957 170.289 146.354 169.699 145.254C169.108 144.154 168.898 142.804 169.067 141.204ZM165.508 135.877L164.445 145.899L139.554 143.261L140.616 133.239L165.508 135.877Z" fill="black"/>
</g>
<defs>
<clipPath id="clip0_6_2">
<rect width="196" height="196" fill="white"/>
</clipPath>
</defs>
</svg>
